<svg xmlns="http://www.w3.org/2000/svg" width="600" height="552" viewBox="0 0 800 736" role="img" aria-label="外出包">
      <defs>
        <linearGradient id="bg" x1="0" x2="1" y1="0" y2="1">
          <stop offset="0%" stop-color="#E7EEF0"/>
          <stop offset="100%" stop-color="#fffaf2"/>
        </linearGradient>
        <filter id="shadow" x="-30%" y="-30%" width="160%" height="160%">
          <feDropShadow dx="0" dy="18" stdDeviation="18" flood-color="#4b4035" flood-opacity=".18"/>
        </filter>
      </defs>
      <rect width="800" height="736" rx="0" fill="url(#bg)"/>
      <circle cx="112" cy="112" r="72" fill="#ffffff" opacity=".42"/>
      <circle cx="692" cy="150" r="104" fill="#557B8C" opacity=".10"/>
      <circle cx="682" cy="610" r="82" fill="#A2BCCC" opacity=".16"/>
      <g transform="translate(400 328)" filter="url(#shadow)">
        
      <path d="M-120 -86c10-70 58-108 120-108s110 38 120 108" fill="none" stroke="#557B8C" stroke-width="18" stroke-linecap="round"/>
      <rect x="-170" y="-86" width="340" height="254" rx="48" fill="#fffaf2" stroke="#557B8C" stroke-width="16"/>
      <rect x="-118" y="-28" width="236" height="126" rx="28" fill="#A2BCCC" opacity=".35"/>
      <path d="M-76 -2h152M-76 34h152M-76 70h152" stroke="#557B8C" stroke-width="12" stroke-linecap="round" opacity=".55"/>
      <circle cx="-126" cy="126" r="18" fill="#557B8C" opacity=".82"/>
      <circle cx="126" cy="126" r="18" fill="#557B8C" opacity=".82"/>
    
      </g>
      <text x="400" y="598" text-anchor="middle" fill="#2f2a24" font-family="Arial, 'PingFang SC', sans-serif" font-size="46" font-weight="700">外出包</text>
      <text x="400" y="642" text-anchor="middle" fill="#6f6256" font-family="Arial, 'PingFang SC', sans-serif" font-size="26" font-weight="600">透气便携</text>
    </svg>
  