<svg xmlns="http://www.w3.org/2000/svg" width="600" height="552" viewBox="0 0 800 736" role="img" aria-label="猫薄荷鱼">
      <defs>
        <linearGradient id="bg" x1="0" x2="1" y1="0" y2="1">
          <stop offset="0%" stop-color="#F2E8D8"/>
          <stop offset="100%" stop-color="#fffaf2"/>
        </linearGradient>
        <filter id="shadow" x="-30%" y="-30%" width="160%" height="160%">
          <feDropShadow dx="0" dy="18" stdDeviation="18" flood-color="#4b4035" flood-opacity=".18"/>
        </filter>
      </defs>
      <rect width="800" height="736" rx="0" fill="url(#bg)"/>
      <circle cx="112" cy="112" r="72" fill="#ffffff" opacity=".42"/>
      <circle cx="692" cy="150" r="104" fill="#6A8572" opacity=".10"/>
      <circle cx="682" cy="610" r="82" fill="#D97757" opacity=".16"/>
      <g transform="translate(400 328)" filter="url(#shadow)">
        
      <circle cx="-58" cy="24" r="82" fill="#fffaf2" stroke="#6A8572" stroke-width="16"/>
      <path d="M-116 24h116M-58 -34v116" stroke="#D97757" stroke-width="16" stroke-linecap="round" opacity=".9"/>
      <path d="M50 -134l144 -56" stroke="#6A8572" stroke-width="15" stroke-linecap="round"/>
      <path d="M80 -112c44 6 70 32 78 76-42-8-68-34-78-76z" fill="#D97757" opacity=".8"/>
      <path d="M112 -126c46 18 66 50 58 94-38-18-58-50-58-94z" fill="#6A8572" opacity=".75"/>
      <circle cx="118" cy="72" r="50" fill="#6A8572" opacity=".18" stroke="#6A8572" stroke-width="14"/>
    
      </g>
      <text x="400" y="598" text-anchor="middle" fill="#2f2a24" font-family="Arial, 'PingFang SC', sans-serif" font-size="46" font-weight="700">猫薄荷鱼</text>
      <text x="400" y="642" text-anchor="middle" fill="#6f6256" font-family="Arial, 'PingFang SC', sans-serif" font-size="26" font-weight="600">毛绒玩具</text>
    </svg>
  