<svg xmlns="http://www.w3.org/2000/svg" width="600" height="552" viewBox="0 0 800 736" role="img" aria-label="鲜肉猫粮">
      <defs>
        <linearGradient id="bg" x1="0" x2="1" y1="0" y2="1">
          <stop offset="0%" stop-color="#F1E6D5"/>
          <stop offset="100%" stop-color="#fffaf2"/>
        </linearGradient>
        <filter id="shadow" x="-30%" y="-30%" width="160%" height="160%">
          <feDropShadow dx="0" dy="18" stdDeviation="18" flood-color="#4b4035" flood-opacity=".18"/>
        </filter>
      </defs>
      <rect width="800" height="736" rx="0" fill="url(#bg)"/>
      <circle cx="112" cy="112" r="72" fill="#ffffff" opacity=".42"/>
      <circle cx="692" cy="150" r="104" fill="#6A8572" opacity=".10"/>
      <circle cx="682" cy="610" r="82" fill="#C6875A" opacity=".16"/>
      <g transform="translate(400 328)" filter="url(#shadow)">
        
    <path d="M-120 -170h240l34 310c4 35-23 65-58 65H-96c-35 0-62-30-58-65z" fill="#fffaf2" stroke="#6A8572" stroke-width="16"/>
    <path d="M-84 -104h168" stroke="#C6875A" stroke-width="18" stroke-linecap="round"/>
    <rect x="-70" y="-42" width="140" height="132" rx="32" fill="#6A8572" opacity=".16"/>
    <circle cx="-34" cy="24" r="18" fill="#6A8572" opacity=".86"/>
    <circle cx="34" cy="24" r="18" fill="#C6875A" opacity=".9"/>
    <path d="M-34 78c23 16 45 16 68 0" stroke="#6A8572" stroke-width="13" stroke-linecap="round"/>
  
      </g>
      <text x="400" y="598" text-anchor="middle" fill="#2f2a24" font-family="Arial, 'PingFang SC', sans-serif" font-size="46" font-weight="700">鲜肉猫粮</text>
      <text x="400" y="642" text-anchor="middle" fill="#6f6256" font-family="Arial, 'PingFang SC', sans-serif" font-size="26" font-weight="600">低敏主粮</text>
    </svg>
  