<svg xmlns="http://www.w3.org/2000/svg" width="600" height="552" viewBox="0 0 800 736" role="img" aria-label="除味喷雾">
      <defs>
        <linearGradient id="bg" x1="0" x2="1" y1="0" y2="1">
          <stop offset="0%" stop-color="#EEF4ED"/>
          <stop offset="100%" stop-color="#fffaf2"/>
        </linearGradient>
        <filter id="shadow" x="-30%" y="-30%" width="160%" height="160%">
          <feDropShadow dx="0" dy="18" stdDeviation="18" flood-color="#4b4035" flood-opacity=".18"/>
        </filter>
      </defs>
      <rect width="800" height="736" rx="0" fill="url(#bg)"/>
      <circle cx="112" cy="112" r="72" fill="#ffffff" opacity=".42"/>
      <circle cx="692" cy="150" r="104" fill="#6A8572" opacity=".10"/>
      <circle cx="682" cy="610" r="82" fill="#8AA3B4" opacity=".16"/>
      <g transform="translate(400 328)" filter="url(#shadow)">
        
      <path d="M-58 -170h116v46H-58z" fill="#6A8572"/>
      <path d="M48 -164h92c20 0 36 16 36 36v10H48z" fill="#6A8572" opacity=".82"/>
      <rect x="-78" y="-118" width="156" height="280" rx="38" fill="#fffaf2" stroke="#6A8572" stroke-width="16"/>
      <rect x="-48" y="-34" width="96" height="104" rx="24" fill="#6A8572" opacity=".16"/>
      <path d="M-32 16h64M-24 50h48" stroke="#8AA3B4" stroke-width="12" stroke-linecap="round"/>
    
      </g>
      <text x="400" y="598" text-anchor="middle" fill="#2f2a24" font-family="Arial, 'PingFang SC', sans-serif" font-size="46" font-weight="700">除味喷雾</text>
      <text x="400" y="642" text-anchor="middle" fill="#6f6256" font-family="Arial, 'PingFang SC', sans-serif" font-size="26" font-weight="600">清洁护理</text>
    </svg>
  