<svg xmlns="http://www.w3.org/2000/svg" width="600" height="552" viewBox="0 0 800 736" role="img" aria-label="自动饮水机">
      <defs>
        <linearGradient id="bg" x1="0" x2="1" y1="0" y2="1">
          <stop offset="0%" stop-color="#E5F0F3"/>
          <stop offset="100%" stop-color="#fffaf2"/>
        </linearGradient>
        <filter id="shadow" x="-30%" y="-30%" width="160%" height="160%">
          <feDropShadow dx="0" dy="18" stdDeviation="18" flood-color="#4b4035" flood-opacity=".18"/>
        </filter>
      </defs>
      <rect width="800" height="736" rx="0" fill="url(#bg)"/>
      <circle cx="112" cy="112" r="72" fill="#ffffff" opacity=".42"/>
      <circle cx="692" cy="150" r="104" fill="#4D8395" opacity=".10"/>
      <circle cx="682" cy="610" r="82" fill="#8AA3B4" opacity=".16"/>
      <g transform="translate(400 328)" filter="url(#shadow)">
        
      <path d="M-142 28h284l-30 96c-10 32-40 54-74 54H-38c-34 0-64-22-74-54z" fill="#fffaf2" stroke="#4D8395" stroke-width="16"/>
      <ellipse cx="0" cy="26" rx="144" ry="46" fill="#8AA3B4" opacity=".38"/>
      <path d="M0 -150c34 46 34 84 0 116-34-32-34-70 0-116z" fill="#4D8395" opacity=".75"/>
      <circle cx="-92" cy="-74" r="34" fill="#4D8395" opacity=".18"/>
      <circle cx="94" cy="-76" r="30" fill="#8AA3B4" opacity=".24"/>
    
      </g>
      <text x="400" y="598" text-anchor="middle" fill="#2f2a24" font-family="Arial, 'PingFang SC', sans-serif" font-size="46" font-weight="700">自动饮水机</text>
      <text x="400" y="642" text-anchor="middle" fill="#6f6256" font-family="Arial, 'PingFang SC', sans-serif" font-size="26" font-weight="600">循环活水</text>
    </svg>
  