<svg xmlns="http://www.w3.org/2000/svg" viewBox="0 0 48 48">
  <rect width="48" height="48" rx="14" fill="#6A8572"/>
  <path d="M16 20c0-2.2 1.8-4 4-4s4 1.8 4 4v1h-8v-1zM24 20c0-2.2 1.8-4 4-4s4 1.8 4 4v1h-8v-1z" fill="#F7F3EC"/>
  <path d="M14 29c0-5 4.5-9 10-9s10 4 10 9c0 4-3 6-7 6h-6c-4 0-7-2-7-6z" fill="#F7F3EC"/>
  <circle cx="21" cy="29" r="1.3" fill="#2B2A26"/>
  <circle cx="27" cy="29" r="1.3" fill="#2B2A26"/>
  <path d="M23 32.3c0 .7.4 1.2 1 1.2s1-.5 1-1.2" stroke="#2B2A26" stroke-width="1.2" stroke-linecap="round" fill="none"/>
</svg>
